<svg width="413" height="555" viewBox="0 0 413 555" fill="none" xmlns="http://www.w3.org/2000/svg">
<g opacity="0.429993">
<path d="M350.545 542.215C351.208 523.847 274.41 491.708 179.017 470.432C83.6242 449.152 5.75772 446.792 5.09474 465.16C4.43468 483.528 81.2293 515.666 176.622 536.943C272.015 558.22 349.882 560.582 350.545 542.215Z" fill="#253439" fill-opacity="0.67"/>
</g>
<path d="M263.225 337.907C246.864 331.943 233.555 313.835 233.555 297.541V21.0468C233.555 4.75269 246.864 -3.65286 263.225 2.31104L383.33 46.0911C399.688 52.055 413 70.1657 413 86.4598L412.997 362.951C412.997 379.245 399.688 387.651 383.33 381.687L263.225 337.907Z" fill="#17161C"/>
<path d="M272.577 329.006C257.353 323.458 244.967 306.607 244.967 291.442V34.1471C244.967 18.9821 257.353 11.1623 272.577 16.7132L384.342 57.454C399.564 63.0023 411.952 79.8535 411.952 95.0185V352.313C411.952 367.476 399.564 375.298 384.342 369.747L272.577 329.006Z" fill="#1E394C"/>
<path d="M266.804 317.427C257.331 313.975 249.625 303.491 249.625 294.053V35.9063C249.625 26.4714 257.331 21.604 266.804 25.0589L378.94 65.9342C388.413 69.3864 396.119 79.871 396.119 89.3086V347.455C396.119 356.89 388.41 361.758 378.94 358.303L266.804 317.427Z" fill="#62BDF4"/>
<g opacity="0.25">
<path d="M383.328 57.3148L263.226 13.5349C256.041 10.918 249.826 12.7784 246.795 17.6675C250.028 16.0466 254.233 15.8713 258.845 17.5507L378.947 61.3307C389.093 65.0311 397.346 76.2608 397.346 86.3662V362.858C397.346 365.81 396.628 368.328 395.375 370.346C399.259 368.398 401.727 364.356 401.727 358.842V82.3503C401.727 72.245 393.474 61.0153 383.328 57.3148Z" fill="#34648C"/>
</g>
<path d="M367.019 54.9857L277.669 22.4179L281.644 33.0782C283.446 37.9205 287.579 42.1408 292.152 43.8056L352.539 65.8182C357.11 67.4859 361.242 66.2797 363.047 62.7516L367.019 54.9857Z" fill="#1E394C"/>
<path d="M378.451 95.3162L268.104 55.0935C262.184 52.9351 257.385 55.9638 257.385 61.8605V111.604C257.385 117.501 262.184 124.029 268.104 126.184L378.451 166.41C384.368 168.568 389.166 165.536 389.166 159.643V109.899C389.166 104.002 384.368 97.4745 378.451 95.3162Z" fill="#87D3F9"/>
<path d="M378.451 182.781L268.104 142.558C262.184 140.4 257.385 143.429 257.385 149.325V199.069C257.385 204.966 262.184 211.494 268.104 213.649L378.451 253.875C384.368 256.033 389.166 253.001 389.166 247.108V197.364C389.166 191.467 384.368 184.939 378.451 182.781Z" fill="#87D3F9"/>
<path d="M374.386 265.611L271.36 228.057C265.833 226.042 261.353 228.87 261.353 234.375V280.819C261.353 286.324 265.833 292.419 271.36 294.434L374.386 331.988C379.91 334.003 384.39 331.172 384.39 325.67V279.226C384.39 273.721 379.91 267.626 374.386 265.611Z" fill="#87D3F9"/>
<path d="M343.092 103.636L304.972 89.7399C303.687 89.2726 302.633 89.9356 302.633 91.2177C302.633 92.4969 303.687 93.928 304.972 94.3953L343.092 108.292C344.377 108.759 345.429 108.096 345.429 106.817C345.429 105.535 344.377 104.103 343.092 103.636Z" fill="#1E394C"/>
<path d="M343.092 129.792L304.972 115.899C303.687 115.429 302.633 116.095 302.633 117.374C302.633 118.656 303.687 120.084 304.972 120.554L343.092 134.451C344.377 134.918 345.429 134.252 345.429 132.973C345.429 131.694 344.377 130.262 343.092 129.792Z" fill="#1E394C"/>
<path d="M354.833 121.168L291.722 98.1625C290.434 97.6923 289.382 98.3582 289.382 99.6374C289.382 100.92 290.434 102.351 291.722 102.818L354.833 125.824C356.118 126.294 357.17 125.628 357.17 124.349C357.17 123.067 356.118 121.638 354.833 121.168Z" fill="#1E394C"/>
<path d="M343.092 197.423L304.972 183.527C303.687 183.06 302.633 183.723 302.633 185.005C302.633 186.284 303.687 187.715 304.972 188.182L343.092 202.079C344.377 202.546 345.429 201.883 345.429 200.604C345.429 199.322 344.377 197.891 343.092 197.423Z" fill="#1E394C"/>
<path d="M354.833 214.956L291.722 191.95C290.434 191.48 289.382 192.146 289.382 193.425C289.382 194.707 290.434 196.138 291.722 196.606L354.833 219.611C356.118 220.081 357.17 219.416 357.17 218.136C357.17 216.854 356.118 215.426 354.833 214.956Z" fill="#1E394C"/>
<path d="M343.09 279.43L304.971 265.533C303.686 265.066 302.634 265.729 302.634 267.011C302.634 268.29 303.686 269.721 304.971 270.189L343.09 284.085C344.376 284.552 345.43 283.889 345.43 282.61C345.43 281.328 344.376 279.897 343.09 279.43Z" fill="#1E394C"/>
<path d="M343.09 305.35L304.971 291.454C303.686 290.987 302.634 291.65 302.634 292.932C302.634 294.211 303.686 295.642 304.971 296.112L343.09 310.006C344.376 310.476 345.43 309.81 345.43 308.531C345.43 307.249 344.376 305.821 343.09 305.35Z" fill="#1E394C"/>
<path d="M354.833 296.963L291.722 273.957C290.434 273.487 289.382 274.153 289.382 275.432C289.382 276.711 290.434 278.145 291.722 278.612L354.833 301.618C356.118 302.088 357.17 301.422 357.17 300.143C357.17 298.861 356.118 297.433 354.833 296.963Z" fill="#1E394C"/>
<path d="M234.395 495.961C234.395 495.961 228.647 493.896 227.908 481.221H211.106L209.485 498.613L222.015 509.078L232.92 503.625L234.395 495.961Z" fill="#F2BF75"/>
<path d="M209.485 498.613C209.485 498.613 229.089 505.099 234.395 495.961C234.395 495.961 270.62 509.457 270.357 513.479C269.942 519.851 239.994 521.163 233.361 519.542L227.617 513.791L225.111 520.427H208.6C208.6 520.427 208.749 499.647 209.485 498.613Z" fill="#1E394C"/>
<path d="M171.689 496.098C171.689 496.098 166.04 493.773 165.888 481.074L149.104 480.306L146.685 497.605L158.718 508.633L169.863 503.686L171.689 496.098Z" fill="#F2BF75"/>
<path d="M146.685 497.605C146.685 497.605 165.97 504.982 171.689 496.098C171.689 496.098 203.389 507.517 205.211 512.763C207.037 518.011 176.125 521.53 169.574 519.609L164.095 513.604L161.288 520.111L144.799 519.354C144.799 519.354 145.9 498.601 146.685 497.605Z" fill="#1E394C"/>
<path d="M135.35 296.988C135.35 296.988 146.255 341.203 148.91 348.574C151.562 355.943 157.164 391.905 157.459 393.084C157.754 394.264 145.078 486.824 145.078 486.824C145.078 486.824 162.176 490.653 168.954 486.232L187.526 392.789L179.568 300.819L135.35 296.988Z" fill="#1E394C"/>
<path d="M137.708 294.628C137.708 294.628 154.51 323.37 169.543 336.192C184.578 349.016 203.147 383.503 203.147 383.503L205.358 486.083C212.572 490.467 221.565 490.698 228.995 486.691L230.122 486.083C230.122 486.083 232.774 379.525 232.33 372.451C231.889 365.374 194.304 284.018 194.304 284.018L137.708 294.628Z" fill="#1E394C"/>
<path d="M202.706 106.266C202.706 106.266 189.552 152.712 168.439 151.366C149.942 150.189 146.502 131.009 150.973 107.37C155.614 82.8307 175.88 86.0726 187.674 85.9266C187.674 85.9266 202.265 85.9266 204.695 74.6501C204.695 74.6501 221.719 97.866 202.706 106.266Z" fill="#1E394C"/>
<path d="M169.168 162.888C169.168 162.888 143.428 158.326 131.518 213.269C126.518 236.336 152.742 272.522 152.742 272.522L180.155 219.755L169.168 162.888Z" fill="#AAC6CE"/>
<path d="M277.21 131.69C277.21 131.69 286.939 104.94 286.939 97.6444C286.939 90.3487 292.465 96.7595 292.243 102.288C292.024 107.814 290.698 114.003 290.698 114.003C290.698 114.003 298.213 114.666 298.213 118.203C298.213 121.742 295.78 134.123 292.243 136.112L277.21 131.69Z" fill="#F2BF75"/>
<path d="M183.473 166.623C200.567 175.417 237.194 198.457 245.597 190.94C253.997 183.425 277.21 131.692 277.21 131.692L292.245 136.114C292.245 136.114 260.112 222.333 250.606 222.114C241.099 221.892 208.751 215.628 208.751 215.628C208.751 215.628 205.801 276.499 196.957 293.301C196.957 293.301 153.405 309 130.855 296.175C130.855 296.175 149.421 272.32 144.561 237.147C139.477 200.335 149.316 149.047 183.473 166.623Z" fill="#CEE5ED"/>
<path d="M202.706 106.267C202.706 106.267 204.254 114.447 206.687 118.203C209.117 121.965 214.424 125.721 214.424 125.721L210.224 131.028C210.224 131.028 213.317 149.597 193.641 153.137L191.652 171.487L169.324 163.969L168.439 151.367C168.439 151.367 172.087 147.5 172.309 143.408C172.309 143.408 167.887 139.097 169.324 134.012C170.761 128.928 175.293 125.058 177.393 126.939C179.493 128.817 179.712 132.575 179.712 132.575H182.589C182.589 132.575 182.084 124.158 183.804 120.636C186.126 115.884 192.096 108.699 202.706 106.267Z" fill="#EA9249"/>
<path d="M191.653 171.484L193.642 153.134C213.318 149.597 210.222 131.025 210.222 131.025L214.425 125.721C214.425 125.721 209.118 121.962 206.685 118.203C204.252 114.444 202.707 106.264 202.707 106.264C201.811 106.471 200.996 106.751 200.166 107.02C201.571 110.89 203.572 117.263 204.033 123.276C204.763 132.768 203.262 143.496 189.976 151.568C185.473 154.308 183.843 161.741 183.349 168.689L191.653 171.484Z" fill="#F2BF75"/>
<path d="M184.291 355.506C169.597 352.182 155.71 343.391 144.991 334.816C141.48 321.58 136.974 303.469 135.7 298.373C137.38 298.995 139.15 299.491 140.952 299.894C146.545 308.811 158.505 326.799 169.533 336.183C174.255 340.222 179.32 346.402 184.072 352.959L184.291 355.506Z" fill="#0F2A3F"/>
<g opacity="0.429993">
<path d="M392.143 455.124C391.935 448.141 357.598 436.108 315.447 428.251C273.297 420.389 239.298 419.676 239.506 426.659C239.713 433.64 274.051 445.673 316.201 453.532C358.351 461.391 392.35 462.104 392.143 455.124Z" fill="#184858"/>
</g>
<path d="M63.5165 340.774C63.5165 340.774 73.8496 250.656 36.5388 264.719C-1.89941 279.205 46.2966 338.768 63.5165 340.774Z" fill="#34648C"/>
<path d="M53.3272 395.162C53.3272 395.162 42.0157 304.971 9.20257 329.939C-20.503 352.542 31.3729 388.489 53.3272 395.162Z" fill="#67B8EF"/>
<path d="M29.0538 361.322C44.054 382.134 58.6425 403.285 63.298 429.027C63.5433 430.391 65.6286 429.813 65.3803 428.449C60.6957 402.549 46.0401 381.211 30.92 360.229C30.1139 359.114 28.2389 360.191 29.0538 361.322Z" fill="#1E394C"/>
<path d="M81.8839 321.545C81.8839 321.545 68.3936 255.247 102.55 261.275C136.704 267.3 90.4938 318.388 81.8839 321.545Z" fill="#67B8EF"/>
<path d="M85.0413 385.548C83.3036 386.707 81.5979 329.58 105.705 331.589C129.814 333.599 118.623 363.161 85.0413 385.548Z" fill="#34648C"/>
<path d="M74.4955 380.937C71.8699 347.339 85.8275 309.484 98.8476 278.874C99.385 277.609 97.5246 276.508 96.9813 277.784C83.7451 308.897 69.6561 346.652 72.3343 380.937C72.4394 382.316 74.6036 382.328 74.4955 380.937Z" fill="#1E394C"/>
<path d="M77.5657 423.593C75.8309 384.185 72.3583 344.173 50.2814 310.285C49.5249 309.125 47.6528 310.206 48.4151 311.377C70.3051 344.979 73.6813 384.53 75.4045 423.593C75.4658 424.98 77.6271 424.986 77.5657 423.593Z" fill="#1E394C"/>
<path d="M82.6362 421.867C83.527 401.134 84.9055 380.43 96.3164 362.439C97.0641 361.262 95.1919 360.175 94.4501 361.349C82.8728 379.6 81.3774 400.807 80.475 421.867C80.4136 423.261 82.5749 423.258 82.6362 421.867Z" fill="#1E394C"/>
<path d="M44.6206 417.561L50.2311 468.365C50.9321 474.711 56.3002 479.519 62.6905 479.519H95.0713C101.462 479.519 106.827 474.711 107.531 468.365L113.138 417.561C113.445 414.798 111.281 412.382 108.5 412.382H49.2586C46.4781 412.382 44.3169 414.798 44.6206 417.561Z" fill="#CEE5ED"/>
<path d="M108.501 412.38H87.9602C90.7407 412.38 92.9048 414.796 92.6011 417.559L86.9906 468.363C86.2896 474.712 80.9216 479.517 74.5312 479.517H95.0719C101.462 479.517 106.827 474.712 107.528 468.363L113.139 417.559C113.445 414.796 111.281 412.38 108.501 412.38Z" fill="#AAC6CE"/>
<g opacity="0.259995">
<path d="M50.8314 333.822C55.6533 337.803 60.1715 340.385 63.5156 340.773C63.5156 340.773 73.7699 251.262 36.8854 264.613C46.7396 276.946 67.7768 308.334 50.8314 333.822Z" fill="#0F2A3F"/>
</g>
<g opacity="0.259995">
<path d="M107.785 331.848C108.608 343.2 108.495 373.198 84.2856 371.396C83.8796 379.726 84.4579 385.938 85.042 385.546C117.61 363.835 129.117 335.376 107.785 331.848Z" fill="#0F2A3F"/>
</g>
<g opacity="0.419998">
<path d="M104.187 261.657C104.937 273.409 104.762 306.009 79.6651 304.698C80.404 314.231 81.8848 321.544 81.8848 321.544C90.3458 318.442 135.063 269.081 104.187 261.657Z" fill="#34648C"/>
</g>
<g opacity="0.419998">
<path d="M53.3283 395.162C53.3283 395.162 42.0168 304.971 9.20074 329.939C8.15808 330.733 7.23809 331.548 6.39111 332.372C16.6425 335.909 50.4427 350.71 39.4086 389.058C44.5723 391.853 49.4263 393.976 53.3283 395.162Z" fill="#34648C"/>
</g>
</svg>
