<svg width="513" height="355" viewBox="0 0 513 355" fill="none" xmlns="http://www.w3.org/2000/svg">
<g opacity="0.429993">
<path d="M512.239 344.919C512.239 339.354 397.758 334.839 256.544 334.839C115.326 334.839 0.845947 339.354 0.845947 344.919C0.845947 350.485 115.326 355 256.544 355C397.758 355 512.239 350.485 512.239 344.919Z" fill="#CEE5ED"/>
</g>
<path d="M173.109 334.888H161.476V223.648H173.109V334.888Z" fill="#AAC6CE"/>
<path d="M173.109 239.285H161.476V223.648H173.109V239.285Z" fill="#85B0BA"/>
<path d="M217.881 334.926H120.356C116.636 334.926 113.616 337.943 113.616 341.666V345.136H224.624V341.666C224.624 337.943 221.604 334.926 217.881 334.926Z" fill="#AAC6CE"/>
<path d="M139.715 223.759H220.325C190.993 213.224 202.34 113.991 207.762 76.3727C208.855 68.7951 202.966 62.0153 195.307 62.0153L141.615 62.0125C130.625 62.0125 121.313 70.1125 119.812 80.9997C115.102 115.177 107.676 186.048 122.384 213.486C125.794 219.852 132.493 223.759 139.715 223.759Z" fill="#AAC6CE"/>
<path d="M416.822 2.28882e-05H320.388C315.445 2.28882e-05 311.435 4.00701 311.435 8.9526V52.398C311.435 57.3435 315.445 61.3534 320.388 61.3534H327.124V71.8588C327.124 73.3141 328.852 74.0862 329.934 73.1074L342.971 61.3534H416.822C421.765 61.3534 425.772 57.3435 425.772 52.398V8.9526C425.772 4.00701 421.765 2.28882e-05 416.822 2.28882e-05Z" fill="#67B8EF"/>
<path d="M349.104 31.3341C349.104 33.5126 347.338 35.2779 345.16 35.2779C342.981 35.2779 341.219 33.5126 341.219 31.3341C341.219 29.1583 342.981 27.3902 345.16 27.3902C347.338 27.3902 349.104 29.1583 349.104 31.3341Z" fill="#34648C"/>
<path d="M373.358 31.3341C373.358 33.5126 371.593 35.2779 369.415 35.2779C367.236 35.2779 365.471 33.5126 365.471 31.3341C365.471 29.1583 367.236 27.3902 369.415 27.3902C371.593 27.3902 373.358 29.1583 373.358 31.3341Z" fill="#34648C"/>
<path d="M395.993 31.3341C395.993 33.5126 394.228 35.2779 392.049 35.2779C389.873 35.2779 388.108 33.5126 388.108 31.3341C388.108 29.1583 389.873 27.3902 392.049 27.3902C394.228 27.3902 395.993 29.1583 395.993 31.3341Z" fill="#34648C"/>
<path d="M101.066 116.728C101.066 106.093 93.5575 95.4386 84.2921 95.4386C75.0295 95.4386 67.5179 106.093 67.5179 116.728C67.5179 127.362 75.0295 135.982 84.2921 135.982C93.5575 135.982 101.066 127.362 101.066 116.728Z" fill="#67B8EF"/>
<g opacity="0.25">
<path d="M84.2926 95.4386C82.8 95.4386 81.362 95.74 79.9871 96.2481C87.1601 98.8945 92.4558 107.807 92.4558 116.728C92.4558 125.649 87.1601 133.132 79.9871 135.319C81.362 135.738 82.8 135.982 84.2926 135.982C93.5581 135.982 101.067 127.362 101.067 116.728C101.067 106.093 93.5581 95.4386 84.2926 95.4386Z" fill="#34648C"/>
</g>
<path d="M65.176 129.309L68.1841 156.526C68.5601 159.927 71.4333 162.502 74.8576 162.502H92.2059C95.6274 162.502 98.5034 159.927 98.8794 156.526L101.885 129.309C102.051 127.828 100.889 126.534 99.399 126.534H67.6617C66.172 126.534 65.0124 127.828 65.176 129.309Z" fill="#CEE5ED"/>
<path d="M67.6622 130.6H99.3995C100.381 130.6 101.179 131.189 101.587 131.995L101.885 129.309C102.049 127.827 100.889 126.533 99.3995 126.533H67.6622C66.1725 126.533 65.0129 127.827 65.1765 129.309L65.4721 131.995C65.8855 131.189 66.6805 130.6 67.6622 130.6Z" fill="#AAC6CE"/>
<path d="M99.3984 126.534H88.3964C89.8861 126.534 91.0457 127.829 90.8821 129.31L87.874 156.527C87.498 159.928 84.6247 162.503 81.2004 162.503H92.2053C95.6296 162.503 98.5028 159.928 98.8788 156.527L101.884 129.31C102.051 127.829 100.891 126.534 99.3984 126.534Z" fill="#AAC6CE"/>
<path d="M238.394 318.467L237.257 326.335L243.239 333.993L258.423 326.561L260.065 319.365L241.169 316.509L238.394 318.467Z" fill="#F2BF75"/>
<path d="M250.646 343.781L252.213 341.841C252.5 341.485 253.04 341.476 253.336 341.827L254.911 343.672C255.549 344.418 256.484 344.84 257.466 344.823L292.734 344.223C293.405 343.534 293.583 342.352 292.794 341.557C287.625 336.339 259.802 327.323 258.422 326.562C257.038 325.799 248.528 332.412 237.256 326.335C237.256 326.335 235.428 335.162 235.164 340.882C235.057 343.219 236.9 345.173 239.237 345.136L248.189 344.981C249.145 344.964 250.046 344.528 250.646 343.781Z" fill="#1E394C"/>
<path d="M173.671 185.55C173.671 185.55 159.027 201.739 185.841 219.331C204.656 231.67 219.482 227.902 231.287 235.382C234.057 237.136 236.161 239.748 236.359 243.02L236.956 318.699L238.386 319.408C245.49 322.936 253.817 323.027 260.998 319.655L271.679 233.307C272.057 227.353 268.843 222.336 265.157 217.646C244.652 191.563 208.348 182.726 199.157 181.219C187.21 179.261 173.671 185.55 173.671 185.55Z" fill="#1E394C"/>
<path d="M180.079 318.458L178.83 326.309L184.712 334.05L199.99 326.825L201.733 319.655L182.88 316.541L180.079 318.458Z" fill="#F2BF75"/>
<path d="M191.981 343.938L193.577 342.018C193.867 341.668 194.409 341.668 194.699 342.021L196.246 343.884C196.875 344.641 197.805 345.075 198.786 345.075L234.06 344.954C234.74 344.277 234.935 343.097 234.155 342.291C229.06 337.004 201.367 327.606 199.992 326.825C198.617 326.047 190.018 332.54 178.832 326.309C178.832 326.309 176.883 335.112 176.541 340.83C176.401 343.16 178.218 345.144 180.557 345.135L189.51 345.104C190.465 345.101 191.369 344.676 191.981 343.938Z" fill="#1E394C"/>
<path d="M129.156 171.435C129.156 171.435 111.411 191.212 137.069 213.549C155.066 229.221 171.218 222.519 182.555 232.077C185.213 234.319 187.05 237.364 186.786 240.831L178.683 317.811L179.295 318.207C186.373 322.799 195.32 323.411 202.952 319.82L223.013 238.702C224.27 232.502 221.609 226.764 218.412 221.307C200.607 190.954 172.65 172.862 163.206 169.96C150.936 166.185 129.156 171.435 129.156 171.435Z" fill="#1E394C"/>
<path d="M227.044 233.215C225.695 232.641 224.32 232.181 222.913 231.779C222.167 228.163 220.388 224.661 218.404 221.303C209.592 206.262 198.257 194.207 187.921 185.567C194.351 184.476 197.623 183.099 199.403 181.29C202.936 181.864 210.052 183.472 218.663 186.514C227.388 201.096 227.36 224.776 227.044 233.215Z" fill="#0F2A3F"/>
<path d="M176.928 66.7787C176.928 66.7787 151.339 63.3659 140.702 83.3061C130.067 103.246 114.186 181.414 128.072 183.794C134.221 184.844 150.619 188.972 168.785 187.643C193.766 185.814 199.196 183.515 200.996 178.765L216.912 105.919C217.285 95.8983 212.825 86.2568 204.831 80.2004C192.078 70.536 176.928 66.7787 176.928 66.7787Z" fill="#CEE5ED"/>
<path d="M216.81 99.5142C216.81 99.5142 217.143 143.384 230.935 146.042C244.73 148.703 281.453 147.871 281.453 147.871V161.829H202.685L216.81 99.5142Z" fill="#AAC6CE"/>
<path d="M197.738 79.6125L200.844 64.0955L180.717 48.7679L176.862 67.0577C176.862 67.0577 183.209 94.9889 197.738 79.6125Z" fill="#EA9249"/>
<path d="M223.411 34.5238C223.411 34.5238 212.883 39.6474 197.458 30.247C197.458 30.247 193.881 36.6795 183.542 42.423C183.542 42.423 178.169 33.4188 175.078 40.1669C174.142 42.2106 173.703 44.0476 173.657 45.6751C163.975 33.169 170.804 16.6933 179.828 7.81252C188.385 -0.617649 206.901 2.7349 218.469 7.38484C230.748 12.3275 233.004 3.72803 233.004 3.72803C248.521 25.5856 223.411 34.5238 223.411 34.5238Z" fill="#1E394C"/>
<path d="M183.538 42.4202C183.538 42.4202 178.168 33.416 175.076 40.1613C171.325 48.3475 175.559 53.4825 180.636 53.4825C180.636 53.4825 184.669 74.7718 204.227 73.2648C223.789 71.7608 226.61 40.3507 223.413 34.5211C223.413 34.5211 212.881 39.6475 197.459 30.2414C197.459 30.2414 193.883 36.6824 183.538 42.4202Z" fill="#F2BF75"/>
<path d="M353.078 92.2138H271.431C267.407 92.2138 263.94 95.0439 263.136 98.9878L252.266 152.264H351.198L361.376 102.375C362.447 97.1249 358.434 92.2138 353.078 92.2138Z" fill="#CEE5ED"/>
<path d="M350.88 152.271H215.949C213.725 152.271 211.919 154.073 211.919 156.301V157.604C211.919 159.831 213.725 161.637 215.949 161.637H350.88C353.108 161.637 354.91 159.831 354.91 157.604V156.301C354.91 154.073 353.108 152.271 350.88 152.271Z" fill="#80A9B2"/>
<path d="M350.881 152.269H251.185C253.41 152.269 255.212 154.075 255.212 156.299V157.605C255.212 159.83 253.41 161.635 251.185 161.635H350.881C353.108 161.635 354.911 159.83 354.911 157.605V156.299C354.911 154.075 353.108 152.269 350.881 152.269Z" fill="#AAC6CE"/>
<path d="M220.3 149.413C204.404 147.562 159.811 143.012 152.17 142.223C142.528 141.224 163.467 102.339 165.795 89.0441C168.12 75.7516 157.985 75.2521 157.985 75.2521C152.264 74.5374 146.019 75.2521 140.703 83.3063C129.821 99.7878 117.697 147.975 124.083 159.87C124.836 161.265 126.302 162.12 127.887 162.12H220.3V149.413Z" fill="#CEE5ED"/>
<path d="M220.3 149.413C220.3 149.413 162.888 145.463 150.508 143.799C140.904 142.513 160.921 102.672 163.246 89.3771C165.574 76.0846 155.273 76.6385 155.273 76.6385C152.689 76.3199 148.964 76.6816 146.306 77.4796C150.149 74.9537 154.176 74.7814 157.991 75.2464C157.991 75.2464 168.12 75.7516 165.795 89.0441C163.467 102.34 145.522 140.394 151.587 141.89C159.047 143.73 204.401 147.564 220.3 149.413Z" fill="#AAC6CE"/>
<path d="M220.3 162.329H241.715C243.323 162.329 244.29 160.55 243.414 159.204C241.408 156.121 238.242 151.767 235.92 151.029C234.536 150.59 224.123 150.977 220.3 151.382V162.329Z" fill="#F2BF75"/>
<g opacity="0.669998">
<path d="M223.412 34.5212C223.412 34.5212 221.655 35.3565 218.564 35.7296C218.302 37.1791 217.837 39.9662 217.585 42.6069C217.226 46.3728 219.109 58.035 217.944 58.124C216.775 58.2129 214.356 58.035 214.356 58.035C214.356 58.035 212.562 74.8982 195.699 72.2058C195.538 72.1828 195.412 72.1656 195.259 72.1398C197.814 73.0583 200.765 73.5319 204.226 73.265C223.791 71.7609 226.609 40.3508 223.412 34.5212Z" fill="#EA9249"/>
</g>
<path d="M468.906 279.546C468.906 279.546 495.804 266.208 488.487 245.978C481.171 225.751 476.653 224.89 490.64 213.483C504.627 202.079 524.855 173.459 499.245 171.309C473.639 169.156 474.931 203.155 453.627 207.889C432.324 212.625 420.702 301.714 468.906 279.546Z" fill="#67B8EF"/>
<g opacity="0.25">
<path d="M447.735 281.553C452.901 283.947 459.848 283.715 468.906 279.547C468.906 279.547 495.804 266.206 488.488 245.976C481.171 225.751 476.653 224.89 490.641 213.483C504.628 202.08 524.855 173.459 499.246 171.307C496.723 171.097 494.47 171.246 492.42 171.674C499.628 174.668 506.798 180.607 497.532 191.594C482.104 209.893 473.852 216.351 475.646 228.191C477.394 239.738 476.398 265.95 447.735 281.553Z" fill="#34648C"/>
</g>
<path d="M423.286 278.902C423.286 278.902 399.615 278.041 400.907 261.04C402.195 244.039 402.855 243.376 387.996 238.017C361.744 228.547 382.525 178.124 403.92 209.827C418.769 231.831 425.224 226.88 434.906 228.602C444.59 230.324 465.678 286.433 423.286 278.902Z" fill="#67B8EF"/>
<g opacity="0.289993">
<path d="M434.905 228.601C425.223 226.879 418.768 231.83 403.917 209.826C392.723 193.233 381.703 199.148 377.498 209.906C383.796 207.978 393.366 206.818 394.557 217.068C396.104 230.369 427.221 252.209 426.587 279.36C427 279.4 427.399 279.432 427.798 279.463C432.328 267.523 438.304 252.034 443.416 238.839C440.68 233.15 437.414 229.046 434.905 228.601Z" fill="#34648C"/>
</g>
<path d="M428.772 278.148C428.772 278.148 399.4 249.421 409.406 244.579C419.412 239.737 439.102 255.555 428.126 238.445C417.153 221.338 404.374 194.69 419.544 198.886C434.714 203.083 435.816 207.695 433.939 187.77C431.51 161.997 445.882 148.713 459.439 157.106C472.992 165.496 447.817 222.305 457.177 216.174C466.537 210.04 474.284 204.877 476.221 212.302C478.159 219.725 449.421 248.873 460.082 243.933C473.32 237.799 475.254 248.776 471.058 255.555C466.864 262.332 449.43 302.68 428.772 278.148Z" fill="#34648C"/>
<g opacity="0.479996">
<path d="M471.059 255.555C475.255 248.775 473.318 237.799 460.083 243.933C449.422 248.873 478.16 219.725 476.222 212.302C474.285 204.876 466.538 210.043 457.178 216.174C447.818 222.308 472.996 165.498 459.437 157.105C453.134 153.202 446.672 154.037 441.787 158.587C448.805 160.303 454.425 165.949 450.53 181.19C442.278 213.482 437.255 240.391 452.324 232.498C466.518 225.061 435.837 259.324 435.524 284.02C453.139 294.086 467.327 261.58 471.059 255.555Z" fill="#1E394C"/>
</g>
<path d="M408.433 281.517L414.116 332.988C414.831 339.42 420.267 344.291 426.74 344.291H459.551C466.02 344.291 471.46 339.42 472.169 332.988L477.855 281.517C478.165 278.715 475.972 276.27 473.153 276.27H413.135C410.316 276.27 408.126 278.715 408.433 281.517Z" fill="#CEE5ED"/>
<path d="M473.153 276.27H452.343C455.162 276.27 457.354 278.718 457.044 281.517L451.358 332.987C450.649 339.42 445.213 344.291 438.74 344.291H459.55C466.023 344.291 471.459 339.42 472.168 332.987L477.854 281.517C478.164 278.718 475.971 276.27 473.153 276.27Z" fill="#AAC6CE"/>
<path d="M409.347 162.163H57.5586C53.6091 162.163 50.4086 165.363 50.4086 169.313V171.629C50.4086 175.579 53.6091 178.782 57.5586 178.782H409.347C413.296 178.782 416.497 175.579 416.497 171.629V169.313C416.497 165.363 413.296 162.163 409.347 162.163Z" fill="#3E8CCC"/>
<path d="M409.347 162.163H57.5586C53.6091 162.163 50.4086 165.363 50.4086 169.313V171.629C50.4086 172.39 50.5608 173.107 50.7789 173.796C51.7003 170.912 54.3697 168.81 57.5586 168.81H409.347C412.536 168.81 415.208 170.912 416.126 173.796C416.347 173.107 416.497 172.39 416.497 171.629V169.313C416.497 165.363 413.296 162.163 409.347 162.163Z" fill="#2173AA"/>
<path d="M168.749 344.541H156.992L75.1934 178.863H86.9531L168.749 344.541Z" fill="#34648C"/>
<path d="M39.3008 344.541H51.0577L132.856 178.863H121.097L39.3008 344.541Z" fill="#34648C"/>
<path d="M421.999 344.541H410.243L328.444 178.863H340.204L421.999 344.541Z" fill="#34648C"/>
<path d="M292.552 344.541H304.309L386.108 178.863H374.348L292.552 344.541Z" fill="#34648C"/>
<path d="M90.1932 185.427L86.9526 178.862H75.1929L78.4335 185.427H90.1932Z" fill="#1A3651"/>
<path d="M129.616 185.427L132.856 178.862H121.096L117.856 185.427H129.616Z" fill="#1A3651"/>
<path d="M343.444 185.427L340.203 178.862H328.444L331.684 185.427H343.444Z" fill="#1A3651"/>
<path d="M382.866 185.427L386.107 178.862H374.347L371.107 185.427H382.866Z" fill="#1A3651"/>
</svg>
