<svg width="480" height="434" viewBox="0 0 480 434" fill="none" xmlns="http://www.w3.org/2000/svg">
<path d="M401.755 193.632C407.751 197.149 417.511 197.218 423.555 193.785C429.599 190.351 429.64 184.717 423.643 181.197C417.649 177.68 407.887 177.611 401.843 181.047C395.799 184.48 395.758 190.115 401.755 193.632ZM276.792 93.9412L365.593 146.043C388.107 139.134 416.792 141.269 435.722 152.376C458.751 165.888 458.6 187.535 435.382 200.723C430.17 203.683 424.237 205.967 417.913 207.574C413.442 208.71 408.778 209.508 404.031 209.97C385.561 211.767 365.85 208.474 351.64 200.136C334.432 190.039 330.173 175.399 338.805 163.141L326.552 155.951L326.899 148.173L314.004 148.083L314.328 140.799L301.433 140.709L301.759 133.423L288.862 133.333L289.188 126.048L276.291 125.959L276.617 118.672L262.85 118.575L258.649 116.112L254.013 96.9843L276.792 93.9412Z" fill="#184858"/>
<path d="M228.211 423.519L347.975 354.66C356.039 350.005 355.027 341.873 345.716 336.497L229.479 269.387C220.169 264.013 206.084 263.428 198.021 268.083L78.2579 336.942C70.1945 341.6 71.206 349.73 80.5169 355.106L196.754 422.216C206.065 427.592 220.149 428.177 228.211 423.519Z" fill="#184858"/>
<path d="M87.8069 267.397L108.512 255.443L32.1704 211.37C28.5651 209.287 28.5651 205.9 32.1704 203.817L110.159 158.792C113.764 156.709 119.63 156.709 123.237 158.792L199.577 202.866L220.283 190.914L143.942 146.836C128.922 138.165 104.478 138.165 89.4544 146.838L11.4657 191.865C-3.55615 200.538 -3.5562 214.651 11.4639 223.324L87.8069 267.397Z" fill="#34648C"/>
<path d="M54.3956 272.663C54.3956 261.591 61.1251 248.735 69.4281 243.941L207.742 164.086C211.46 161.94 214.856 161.786 217.48 163.252L217.488 163.247L382.636 259.214L222.932 379.555L60.2317 285.123C59.7295 284.893 59.2431 284.629 58.7956 284.287H58.7921H58.7938C56.0767 282.229 54.3956 278.192 54.3956 272.663Z" fill="#87D3F9"/>
<path d="M222.932 379.555L60.2318 285.123C59.7296 284.893 59.2432 284.629 58.7956 284.287H58.7922L58.7939 284.286C56.0768 282.229 54.3957 278.192 54.3957 272.663C54.3957 267.378 55.9411 261.694 58.4485 256.668L243.913 363.746L222.932 379.555Z" fill="#34648C"/>
<path d="M233.335 379.128L371.649 299.272C379.952 294.479 386.68 281.621 386.68 270.55C386.68 259.482 379.952 254.395 371.649 259.186L233.335 339.044C225.032 343.835 218.301 356.695 218.301 367.763C218.301 378.834 225.032 383.921 233.335 379.128Z" fill="#34648C"/>
<path d="M254.05 352.197L270.679 342.604C272.334 341.649 273.677 339.085 273.677 336.879C273.677 334.673 272.334 333.66 270.679 334.615L254.05 344.206C252.396 345.163 251.055 347.725 251.055 349.931C251.055 352.137 252.396 353.152 254.05 352.197Z" fill="#87D3F9"/>
<path d="M378.918 70.9885L350.499 87.1328L321.501 70.118L321.579 62.7172L321.826 62.8617L321.849 62.3401L308.954 62.2502L309.031 54.964L296.385 54.8759L296.46 47.5878L283.814 47.4997L283.889 40.2134L271.243 40.1253L271.319 32.8373L257.8 32.7421L253.601 30.2787L248.963 11.1494L249.04 3.74855L251.277 10.841L271.742 8.10798L378.918 70.9885Z" fill="#62BDF4"/>
<path d="M350.576 79.731L321.579 62.7179L321.926 54.94L309.031 54.8501L309.355 47.5656L296.46 47.4758L296.784 40.1895L283.889 40.0996L284.217 32.8133L271.32 32.7252L271.646 25.439L257.876 25.342L253.675 22.8786L249.04 3.74927L271.819 0.707886L378.993 63.5884L350.576 79.731Z" fill="#D9EFFB"/>
<path d="M331.267 68.4025C334.185 64.2562 338.569 60.3814 344.437 57.0475C348.571 54.6986 353.172 52.7973 358.049 51.3013L378.993 63.5884L350.576 79.731L331.267 68.4025Z" fill="#62BDF4"/>
<path d="M249.818 6.96102L249.041 3.74871L252.863 3.23949L343.415 56.3703L338.647 59.0786L249.818 6.96102Z" fill="#62BDF4"/>
<path d="M447.601 94.3364L447.915 83.8149L444.547 90.9197L447.601 94.3364Z" fill="#D4D0CE"/>
<path d="M396.556 98.3261C390.512 101.759 390.472 107.396 396.468 110.913C402.463 114.432 412.225 114.499 418.269 111.066C424.313 107.63 424.354 101.997 418.357 98.4776C412.361 94.9605 402.6 94.8935 396.556 98.3261ZM430.096 118.003C406.877 131.195 369.385 130.93 346.354 117.418C334.807 110.643 329.091 101.826 329.184 93.0521L329.183 93.0574L329.505 81.9121L331.398 84.0196C334.071 78.5254 339.16 73.3501 346.696 69.0717C369.912 55.8824 407.406 56.145 430.435 69.6567C453.465 83.1703 453.314 104.816 430.096 118.003Z" fill="#62BDF4"/>
<path d="M396.87 87.8101C390.824 91.2462 390.786 96.8796 396.782 100.399C402.778 103.916 412.539 103.984 418.583 100.55C424.627 97.1175 424.667 91.4806 418.671 87.9634C412.676 84.4463 402.916 84.3775 396.87 87.8101ZM430.408 107.489C407.192 120.678 369.698 120.416 346.67 106.902C323.639 93.3907 323.79 71.745 347.008 58.5557C370.225 45.3664 407.718 45.629 430.75 59.1425C453.779 72.6543 453.627 94.2999 430.408 107.489Z" fill="#F5F6F5"/>
<path d="M403.49 113.249C408.597 114.047 414.248 113.349 418.269 111.066C422.604 108.602 423.832 105.011 421.98 101.876L432.498 93.5362C432.498 93.5362 437.996 87.3336 443.439 81.1839C451.907 93.5627 447.449 108.144 430.096 118.003C422.44 122.354 413.86 124.822 404.13 126.255L403.49 113.249Z" fill="#62BDF4"/>
<path d="M396.87 87.8101C390.824 91.2462 390.786 96.8796 396.782 100.399C402.778 103.916 412.539 103.984 418.583 100.55C424.627 97.1175 424.667 91.4806 418.671 87.9634C412.676 84.4463 402.916 84.3775 396.87 87.8101ZM430.408 107.489C425.196 110.45 419.265 112.733 412.939 114.34C408.47 115.477 403.806 116.275 399.057 116.735C380.588 118.534 360.876 115.241 346.67 106.902C323.639 93.3907 323.79 71.7451 347.008 58.5557C370.225 45.3664 407.718 45.629 430.75 59.1425C453.779 72.6543 453.627 94.2999 430.408 107.489Z" fill="#D9EFFB"/>
<path d="M441.379 83.5334C440.248 76.7934 435.252 70.212 426.359 64.9926C405.869 52.9698 372.511 52.7373 351.854 64.4711C341.588 70.3036 336.402 77.9934 336.284 85.729C334.811 76.9432 339.917 67.8966 351.609 61.2552C372.264 49.5197 405.622 49.754 426.112 61.775C436.419 67.8243 441.497 75.7009 441.379 83.5334Z" fill="#62BDF4"/>
<path d="M426.616 90.0953C430.796 90.0953 435.479 91.5473 440.366 94.4124C457.747 104.611 471.773 129.302 471.629 149.455C471.565 158.845 468.441 165.769 462.832 168.951C457.225 172.133 449.68 171.277 441.581 166.526C424.198 156.329 410.174 131.637 410.315 111.485C410.354 105.956 411.483 101.14 413.585 97.5596C415.004 95.1402 416.866 93.2653 419.115 91.986C421.338 90.7226 423.867 90.0953 426.616 90.0953ZM455.347 179.228C459.518 179.228 463.439 178.234 466.964 176.23C475.285 171.508 479.916 162.021 479.999 149.511C480.163 126.698 464.283 98.7419 444.602 87.1931C433.819 80.8654 423.3 79.9808 414.979 84.7085C411.435 86.7226 408.537 89.6213 406.366 93.3217C403.48 98.2397 401.992 104.331 401.945 111.429C401.783 134.243 417.664 162.2 437.345 173.747C443.557 177.39 449.682 179.228 455.347 179.228Z" fill="#62BDF4"/>
<path d="M415.686 108.613L399.156 112.664L396.782 100.398C402.778 103.915 412.539 103.984 418.583 100.55L415.686 108.613Z" fill="#D9EFFB"/>
<path d="M430.408 107.489C425.196 110.45 419.265 112.733 412.939 114.34C408.47 115.477 403.806 116.275 399.057 116.735C380.588 118.534 360.876 115.241 346.67 106.902L413.985 105.392L430.408 107.489Z" fill="#D9EFFB"/>
<path d="M405.536 115.989C405.536 115.989 412.692 114.824 420.156 112.22V122.547C416.599 123.789 410.736 125.587 405.716 126.251C390.303 128.286 405.536 115.989 405.536 115.989Z" fill="#4067B1"/>
<path d="M416.271 113.466C419.347 112.559 422.699 111.401 425.793 109.952C434.797 105.736 423.407 121.355 423.407 121.355C423.407 121.355 420.339 122.576 416.271 123.824V113.466Z" fill="#87D3F9"/>
<path d="M247.391 294.927L276.845 313.922L291.183 311.595L256.161 294.664L247.391 294.927Z" fill="#5F92D3"/>
<path d="M283.001 390.834C283.001 390.834 291.486 386.554 296.697 392.928C301.905 399.298 309.354 414.336 309.585 424.499C309.815 434.66 301.542 433.976 296.626 431.569C291.706 429.163 277.342 408.327 276.471 404.244C275.602 400.16 277.497 394.639 278.88 393.559C280.261 392.479 283.001 390.834 283.001 390.834Z" fill="#1E394C"/>
<path d="M281.15 388.79L280.758 397.58C280.674 399.449 281.613 401.228 283.241 402.152C284.723 402.993 286.875 403.638 289.786 403.169C296.177 402.142 296.748 400.316 297.204 391.529C297.659 382.741 281.15 388.79 281.15 388.79Z" fill="#F2BF75"/>
<path d="M314.057 373.932C314.057 373.932 322.541 369.655 327.752 376.025C332.96 382.395 340.409 397.435 340.64 407.599C340.871 417.759 332.597 417.073 327.681 414.67C322.763 412.263 308.397 391.426 307.528 387.343C306.658 383.259 308.552 377.74 309.935 376.658C311.317 375.578 314.057 373.932 314.057 373.932Z" fill="#1E394C"/>
<path d="M312.205 371.888L311.813 380.677C311.729 382.546 312.668 384.329 314.296 385.252C315.778 386.092 317.93 386.737 320.841 386.268C327.232 385.241 327.803 383.415 328.259 374.628C328.714 365.84 312.205 371.888 312.205 371.888Z" fill="#F2BF75"/>
<path d="M236.503 210.519C239.014 169.663 280.75 216.529 280.75 216.529L309.315 244.527L335.036 272.784C340.06 278.301 342.396 285.753 341.424 293.152L331.02 372.381C330.506 376.295 327.158 379.181 323.211 379.15C322.097 379.141 320.82 379.04 319.357 378.813C310.074 377.368 310.76 368.542 310.76 368.542L312.661 294.437L258.644 261.875C258.644 261.875 233.994 251.375 236.503 210.519Z" fill="#1E394C"/>
<path d="M292.02 280.432L299.708 277.609C299.886 277.609 312.774 290.076 312.661 294.437L306.88 296.294L292.358 282.199L292.02 280.432Z" fill="#5F92D3"/>
<path d="M247.391 294.927C247.391 294.927 215.289 276.598 211.448 268.913C209.941 265.903 207.603 262.76 216.97 258.21L259.782 288.728L257.927 299.235L247.391 294.927Z" fill="#5F92D3"/>
<path d="M205.446 226.284C208.125 185.441 249.694 232.295 249.694 232.295L278.26 260.295L303.981 288.55C309.005 294.069 311.341 301.521 310.369 308.92L299.963 388.15C299.451 392.062 296.103 394.949 292.156 394.919C291.042 394.908 289.764 394.808 288.302 394.579C279.019 393.134 279.705 384.308 279.705 384.308L281.606 310.204L227.589 277.641C227.589 277.641 203 263.628 205.446 226.284Z" fill="#1E394C"/>
<path d="M230.139 94.9333C198.497 108.054 199.131 126.757 199.131 126.757C199.131 126.757 205.33 195.327 203.214 241.121C202.329 260.266 304.926 261.727 289.625 210.652C271.587 150.432 278.346 101.68 269.902 94.3289C261.456 86.9757 238.324 91.5413 230.139 94.9333Z" fill="#CEE5ED"/>
<path d="M219.959 111.518C221.614 117.943 230.031 121.33 238.759 119.079C247.488 116.833 253.222 109.802 251.566 103.377C249.911 96.9528 241.494 93.5678 232.766 95.8145C224.038 98.0647 218.303 105.095 219.959 111.518Z" fill="#F2BF75"/>
<path d="M242.824 93.5086C242.824 93.5086 242.553 94.7773 243.101 104.804C243.271 107.956 232.235 110.901 229.381 108.048C226.528 105.195 227.67 102.227 226.984 91.4998C226.299 80.7722 242.824 93.5086 242.824 93.5086Z" fill="#F2BF75"/>
<path d="M226.984 91.4997C226.984 91.4997 229.703 101.447 243.102 105.262L242.898 96.2221L226.984 91.4997Z" fill="#F2BF75"/>
<path d="M218.498 66.2276C215.129 79.2512 222.958 92.5374 235.98 95.9048C249.003 99.2704 262.29 91.4432 265.657 78.4195C269.024 65.3976 261.197 52.1114 248.174 48.7423C235.152 45.3767 221.864 53.2057 218.498 66.2276Z" fill="#EA9249"/>
<path d="M236.484 73.2178C236.484 73.2178 249.893 78.9622 259.18 79.0274C268.464 79.0944 266.417 71.3182 266.417 71.3182L238.854 67.3341L236.484 73.2178Z" fill="#F2BF75"/>
<path d="M261.946 74.7317C261.946 74.7317 250.265 69.7731 240.019 71.8401C237.608 72.3264 235.375 73.6163 233.825 75.5211C233.317 76.1431 232.676 76.7123 231.95 76.8761C230.133 77.2885 227.159 69.7485 223.626 69.5775C220.095 69.4048 217.737 71.9053 220.634 76.5431C223.529 81.1792 222.549 86.3686 221.219 87.1122C219.885 87.8558 205.751 77.0312 218.218 52.3336C230.687 27.636 262.355 40.9381 267.282 45.9442C267.282 45.9442 272.469 50.464 276.69 46.4412C276.69 46.4412 281.421 81.8735 261.946 74.7317Z" fill="#1E394C"/>
<path d="M216.882 176.856V195.383C216.882 197.506 217.774 199.531 219.344 200.961L257.407 235.664L253.083 242.277L202.815 205.821C200.47 204.119 198.958 201.502 198.655 198.62L195.256 166.306L216.882 176.856Z" fill="#F2BF75"/>
<path d="M201.811 117.492C201.811 117.492 190.262 134.859 185.961 180.57C185.961 180.57 205.686 186.949 216.882 183.326C228.075 179.706 201.811 117.492 201.811 117.492Z" fill="#CEE5ED"/>
<path d="M218.99 139.45C218.99 139.45 223.51 163.645 223.767 175.016C223.837 178.14 221.929 180.961 218.99 182.024V139.45Z" fill="#AAC6CE"/>
<path d="M228.865 259.755L237.279 258.645L291.583 227.292C293.324 226.286 296.365 226.412 298.376 227.574L336.857 249.781L341.942 249.108V254.174H341.937C341.972 254.84 341.591 255.484 340.77 255.958L279.225 291.489C277.484 292.496 274.445 292.368 272.434 291.208L230.526 267.022C229.395 266.368 228.833 265.528 228.865 264.738V259.755Z" fill="#263C7A"/>
<path d="M269.669 239.944L273.527 237.716H315.944L336.857 249.781L341.942 249.108V254.174H341.937C341.972 254.84 341.591 255.484 340.77 255.958L279.225 291.489C278.305 292.021 277.023 292.232 275.72 292.146L269.669 239.944Z" fill="#4067B1"/>
<path d="M339.685 249.406L341.942 249.109V254.175H341.937C341.972 254.841 341.591 255.484 340.77 255.958L339.685 256.583V249.406Z" fill="#5F92D3"/>
<path d="M278.607 291.778C276.956 292.404 274.598 292.268 272.836 291.419V282.805H278.607V291.778Z" fill="#2E4B8D"/>
<path d="M279.225 286.428L340.77 250.897C342.511 249.893 342.293 248.136 340.282 246.977L298.376 222.788C296.365 221.629 293.324 221.502 291.583 222.508L230.038 258.039C228.297 259.043 228.516 260.8 230.526 261.96L272.434 286.148C274.445 287.308 277.484 287.434 279.225 286.428Z" fill="#34648C"/>
<path d="M280.267 281.045L331.44 251.498C332.888 250.663 332.707 249.202 331.034 248.236L308.578 235.609C306.906 234.643 304.377 234.539 302.931 235.376L251.758 264.92C250.309 265.757 250.491 267.216 252.163 268.181L274.619 280.81C276.29 281.774 278.82 281.878 280.267 281.045Z" fill="#87D3F9"/>
<path d="M295.995 221.622L296.631 225.869C297.176 229.488 297.081 233.173 296.355 236.758L295.597 240.499C295.169 242.61 293.5 244.247 291.382 244.632C289.726 244.933 288.164 243.772 287.976 242.099L286.961 233.023C286.961 233.023 284.638 236.064 283.516 236.064C282.395 236.064 284.772 226.974 287.306 221.828C289.844 216.683 295.995 221.622 295.995 221.622Z" fill="#F2BF75"/>
<path d="M275.134 154.131L281.736 167.201C283.299 170.292 284.217 173.668 284.439 177.123L287.306 221.828L295.995 221.621L299.939 171.418C300.06 169.867 299.986 168.307 299.713 166.776L295.211 141.317L275.134 154.131Z" fill="#F2BF75"/>
<path d="M281.31 289.843L286.471 283.105L340.738 251.685C342.478 250.678 343.886 247.981 343.884 245.658L343.834 201.23L346.957 197.156L344.025 195.458L344.021 195.461C343.461 195.1 342.714 195.111 341.893 195.585L280.394 231.193C278.653 232.199 277.245 234.897 277.246 237.218L277.299 285.605C277.301 286.912 277.749 287.818 278.45 288.185L281.31 289.843Z" fill="#263C7A"/>
<path d="M318.839 264.367L322.693 262.132L343.857 225.373L343.834 201.231L346.957 197.157L344.025 195.458L344.021 195.462C343.461 195.1 342.714 195.111 341.893 195.585L280.394 231.193C279.474 231.724 278.649 232.732 278.075 233.904L318.839 264.367Z" fill="#4067B1"/>
<path d="M345.572 198.963L346.957 197.157L344.025 195.458L344.021 195.462C343.461 195.1 342.714 195.111 341.893 195.585L340.811 196.212L345.572 198.963Z" fill="#5F92D3"/>
<path d="M279.833 231.586C278.468 232.703 277.409 234.816 277.264 236.767L283.275 240.236L286.154 235.234L279.833 231.586Z" fill="#2E4B8D"/>
<path d="M283.322 232.889L344.821 197.28C346.562 196.274 347.973 197.34 347.977 199.661L348.028 248.046C348.032 250.367 346.625 253.067 344.885 254.075L283.384 289.681C281.645 290.687 280.231 289.623 280.228 287.301L280.177 238.915C280.175 236.595 281.581 233.897 283.322 232.889Z" fill="#62BDF4"/>
<path d="M253.083 242.277L254.068 244.32C255.203 246.67 256.986 248.647 259.208 250.017L265.317 253.782C267.217 254.954 269.624 255.051 271.553 253.927L271.761 253.802C273.703 252.584 273.877 249.796 272.281 248.154L265.897 241.592C265.897 241.592 269.483 244.339 270.487 243.234C271.224 242.422 267.01 238.464 263.775 238.334C260.538 238.205 257.407 235.664 257.407 235.664L253.083 242.277Z" fill="#F2BF75"/>
<path d="M269.27 94.2323C269.27 94.2323 292.67 119.696 302.112 143.057C302.112 143.057 294.11 157.474 274.521 163.132C254.931 168.789 269.27 94.2323 269.27 94.2323Z" fill="#CEE5ED"/>
<path d="M278.927 161.621L275.134 124.98L284.071 159.311C282.478 160.139 280.755 160.912 278.927 161.621Z" fill="#AAC6CE"/>
<path d="M14.9986 138.595C19.7669 138.595 23.647 142.473 23.647 147.241C23.647 152.008 19.7669 155.886 14.9986 155.886C10.2322 155.886 6.35377 152.008 6.35377 147.241C6.35377 142.473 10.2322 138.595 14.9986 138.595ZM14.9986 159.731C21.8849 159.731 27.4902 154.128 27.4902 147.241C27.4902 140.355 21.8849 134.75 14.9986 134.75C8.11235 134.75 2.5089 140.355 2.5089 147.241C2.5089 154.128 8.11235 159.731 14.9986 159.731Z" fill="#62BDF4"/>
<path d="M177.607 102.631L172.521 112.978L162.176 107.892L167.26 97.5453L177.607 102.631ZM174.273 118.123L182.75 100.877L165.508 92.3999L157.031 109.644L174.273 118.123Z" fill="#62BDF4"/>
</svg>
